<svg id="visual" viewBox="0 0 540 960" width="540" height="960" xmlns="http://www.w3.org/2000/svg" xmlns:xlink="http://www.w3.org/1999/xlink" version="1.1"><rect x="0" y="0" width="540" height="960" fill="#001220"></rect><path d="M0 646L7.5 642.5C15 639 30 632 45 626.2C60 620.3 75 615.7 90 617C105 618.3 120 625.7 135 631.3C150 637 165 641 180 631.8C195 622.7 210 600.3 225 600.8C240 601.3 255 624.7 270 621.5C285 618.3 300 588.7 315 588.5C330 588.3 345 617.7 360 619.8C375 622 390 597 405 590.5C420 584 435 596 450 605C465 614 480 620 495 613.5C510 607 525 588 532.5 578.5L540 569L540 961L532.5 961C525 961 510 961 495 961C480 961 465 961 450 961C435 961 420 961 405 961C390 961 375 961 360 961C345 961 330 961 315 961C300 961 285 961 270 961C255 961 240 961 225 961C210 961 195 961 180 961C165 961 150 961 135 961C120 961 105 961 90 961C75 961 60 961 45 961C30 961 15 961 7.5 961L0 961Z" fill="#c62368"></path><path d="M0 682L7.5 684C15 686 30 690 45 694.5C60 699 75 704 90 700.5C105 697 120 685 135 687.8C150 690.7 165 708.3 180 710C195 711.7 210 697.3 225 688.7C240 680 255 677 270 672.7C285 668.3 300 662.7 315 672.8C330 683 345 709 360 709.2C375 709.3 390 683.7 405 680.7C420 677.7 435 697.3 450 697.5C465 697.7 480 678.3 495 680.7C510 683 525 707 532.5 719L540 731L540 961L532.5 961C525 961 510 961 495 961C480 961 465 961 450 961C435 961 420 961 405 961C390 961 375 961 360 961C345 961 330 961 315 961C300 961 285 961 270 961C255 961 240 961 225 961C210 961 195 961 180 961C165 961 150 961 135 961C120 961 105 961 90 961C75 961 60 961 45 961C30 961 15 961 7.5 961L0 961Z" fill="#da3f67"></path><path d="M0 775L7.5 770.3C15 765.7 30 756.3 45 754C60 751.7 75 756.3 90 760C105 763.7 120 766.3 135 766.7C150 767 165 765 180 760C195 755 210 747 225 755.3C240 763.7 255 788.3 270 795C285 801.7 300 790.3 315 787.2C330 784 345 789 360 790C375 791 390 788 405 781C420 774 435 763 450 757.3C465 751.7 480 751.3 495 754.3C510 757.3 525 763.7 532.5 766.8L540 770L540 961L532.5 961C525 961 510 961 495 961C480 961 465 961 450 961C435 961 420 961 405 961C390 961 375 961 360 961C345 961 330 961 315 961C300 961 285 961 270 961C255 961 240 961 225 961C210 961 195 961 180 961C165 961 150 961 135 961C120 961 105 961 90 961C75 961 60 961 45 961C30 961 15 961 7.5 961L0 961Z" fill="#eb5967"></path><path d="M0 832L7.5 834.5C15 837 30 842 45 853C60 864 75 881 90 883.5C105 886 120 874 135 866.8C150 859.7 165 857.3 180 855.7C195 854 210 853 225 852C240 851 255 850 270 856C285 862 300 875 315 871.2C330 867.3 345 846.7 360 841.2C375 835.7 390 845.3 405 848.8C420 852.3 435 849.7 450 845.3C465 841 480 835 495 834.5C510 834 525 839 532.5 841.5L540 844L540 961L532.5 961C525 961 510 961 495 961C480 961 465 961 450 961C435 961 420 961 405 961C390 961 375 961 360 961C345 961 330 961 315 961C300 961 285 961 270 961C255 961 240 961 225 961C210 961 195 961 180 961C165 961 150 961 135 961C120 961 105 961 90 961C75 961 60 961 45 961C30 961 15 961 7.5 961L0 961Z" fill="#fa7268"></path></svg>